PathFileType	4	(X/Y/Z)	T:\Spectrum_Optical_Capture\Spectrum_Demo_10_05_01_TRUECOMBAT\07_Smooth_Trc\TC_Stairs_1.trc
DataRate	CameraRate	NumFrames	NumMarkers	Units	OrigDataRate	OrigDataStartFrame	OrigNumFrames
60.0	60.0	       4	46	mm	60.0	269	       716
Frame#	Time	HeadTop			ForeHead			LFrontHead			RFrontHead			TopSpine			Sternum			Scapula			LFShoulder			LShoulder			LBicep			LOuterElbow			LHand			LWristPinky			LWristThumb			RFShoulder			RShoulder			RBicep			ROuterElbow			RHand			RWristPinky			RWristThumb			MiddleBack			LowerBack			Root			Pelvis			LBackWaist			RBackWaist			LFrontWaist			RFrontWaist			Bellymarker			LThigh			LOuterKnee			LAnkle			LHeel			LOuterMeta			LToe			RThigh			ROuterKnee			RAnkle			RHeel			ROuterMeta			RToe			Floor1			Floor2			Floor3			Floor4			
		X1	Y1	Z1	X2	Y2	Z2	X3	Y3	Z3	X4	Y4	Z4	X5	Y5	Z5	X6	Y6	Z6	X7	Y7	Z7	X8	Y8	Z8	X9	Y9	Z9	X10	Y10	Z10	X11	Y11	Z11	X12	Y12	Z12	X13	Y13	Z13	X14	Y14	Z14	X15	Y15	Z15	X16	Y16	Z16	X17	Y17	Z17	X18	Y18	Z18	X19	Y19	Z19	X20	Y20	Z20	X21	Y21	Z21	X22	Y22	Z22	X23	Y23	Z23	X24	Y24	Z24	X25	Y25	Z25	X26	Y26	Z26	X27	Y27	Z27	X28	Y28	Z28	X29	Y29	Z29	X30	Y30	Z30	X31	Y31	Z31	X32	Y32	Z32	X33	Y33	Z33	X34	Y34	Z34	X35	Y35	Z35	X36	Y36	Z36	X37	Y37	Z37	X38	Y38	Z38	X39	Y39	Z39	X40	Y40	Z40	X41	Y41	Z41	X42	Y42	Z42	X43	Y43	Z43	X44	Y44	Z44	X45	Y45	Z45	X46	Y46	Z46	

269	4.467	340.12900	2971.29346	-575.25830	325.47272	2816.72314	-506.03229	426.27173	2834.03955	-572.92188	240.64700	2842.65723	-575.65741	317.50391	2747.77515	-829.07111	345.90317	2451.08594	-690.88214	183.90604	2631.54077	-898.42694	424.77356	2588.89502	-674.62811	531.82202	2716.46069	-750.51538	612.33307	2529.25537	-846.88232	588.48419	2465.63892	-966.07990	581.83801	2296.30127	-766.97461	557.54675	2233.32251	-711.48718	550.60834	2302.36035	-633.69452	269.66141	2576.11792	-662.28967	136.34805	2682.95532	-708.54950	68.88188	2523.24268	-791.55774	76.71645	2360.50464	-832.01917	145.62859	2346.46997	-595.57916	186.41910	2304.93677	-526.37408	187.39130	2391.45264	-481.04807	316.19434	2677.73730	-888.99365	314.62277	2561.18774	-947.76172	313.01852	2452.29565	-1000.42853	461.81406	2475.93091	-968.81934	455.12326	2363.72168	-1040.03101	171.25665	2350.29468	-998.64246	491.13611	2333.93311	-898.80481	169.30257	2310.74512	-856.38568	346.16922	2291.62988	-782.08124	542.91382	2137.13599	-876.66791	560.27899	2048.86816	-725.75909	504.30746	1859.60156	-955.71967	424.81128	1871.65918	-1059.55444	500.50491	1759.61597	-980.21008	444.89609	1695.76392	-885.50146	153.16734	2081.59033	-834.37964	184.63429	1919.62244	-846.84424	227.57466	1559.34265	-948.66199	303.78979	1491.45740	-1043.16431	215.99451	1438.42175	-915.44238	276.77667	1453.55347	-808.96771	4200.72461	32.91248	-4241.20557	-3735.34595	-12.54731	-4194.45654	-3781.54028	-15.70618	4946.39014	4162.95703	21.56340	4908.52344	
270	4.483	343.46756	2982.04517	-565.86072	328.24756	2827.27393	-497.66620	428.97992	2844.49829	-563.97443	243.74529	2853.49854	-567.71808	321.04425	2760.35645	-821.15027	347.25211	2463.14966	-683.92914	186.16315	2643.99536	-890.50970	426.97488	2600.95361	-666.49646	534.42572	2728.96094	-740.10938	617.20941	2547.81348	-844.16248	594.49023	2490.09497	-966.38257	588.25092	2311.51270	-775.75781	564.45966	2245.54028	-722.95575	556.16003	2310.97632	-642.31470	271.60562	2589.57031	-654.07825	139.77982	2698.73120	-701.22754	72.83783	2535.44165	-777.30121	81.37626	2369.80469	-806.82465	150.34009	2381.85840	-569.89673	191.94226	2348.58325	-495.97125	191.46288	2440.60474	-461.33017	319.44412	2690.39136	-880.94592	315.72403	2574.04541	-939.52826	311.76239	2465.09766	-992.65253	461.44165	2489.75269	-961.59741	453.65707	2379.36133	-1033.28015	170.43106	2360.85254	-990.65771	490.98761	2349.93555	-892.70380	168.94287	2320.47998	-849.93970	347.14038	2304.36377	-774.92517	544.66760	2159.94165	-865.23578	561.44672	2077.42847	-709.35602	502.57590	1878.03870	-927.77948	422.88162	1884.68860	-1032.63599	497.17926	1777.48938	-946.54010	441.25879	1722.07080	-847.43512	154.21967	2088.93091	-833.21320	184.30247	1927.42505	-851.10669	226.53258	1562.72266	-948.95654	302.89725	1495.26758	-1041.35229	216.13371	1439.07678	-914.63892	277.15686	1453.60779	-808.67358	4200.62402	32.84099	-4241.18262	-3735.35010	-12.54546	-4194.45508	-3781.50049	-15.74466	4946.35889	4162.84375	21.55608	4908.34229	
271	4.500	347.04764	2993.92407	-555.61884	330.95953	2839.03003	-488.81735	431.84995	2856.12769	-554.25903	246.93494	2865.70313	-559.40497	324.80414	2774.91016	-812.67908	349.46094	2477.37842	-676.62122	188.38554	2658.69507	-881.78455	429.59430	2614.79102	-658.02203	537.23529	2743.23413	-729.46338	622.34283	2567.99121	-840.10498	600.76208	2515.98047	-965.08490	593.42328	2329.74097	-782.20380	569.41974	2261.48193	-731.70410	559.94354	2323.60669	-649.03186	274.00690	2604.95361	-645.54846	144.03859	2716.55249	-692.83459	76.62292	2550.85327	-762.41058	85.95744	2383.25732	-782.77698	154.58957	2419.24365	-547.75433	196.77733	2393.46484	-470.02521	194.41794	2489.97656	-445.77145	322.73248	2704.93237	-872.37378	316.87085	2588.99634	-930.98578	310.85086	2480.09058	-984.80365	461.27792	2505.66748	-954.13470	452.48596	2396.64990	-1026.09509	169.99008	2373.60669	-982.48633	491.51685	2367.32690	-887.06396	169.47336	2332.78955	-842.57471	348.68851	2319.01709	-767.80371	546.49658	2182.67139	-855.19751	561.65259	2103.22852	-696.20618	499.53391	1887.37805	-899.15979	419.21909	1886.33289	-1003.97412	493.00635	1785.64429	-910.32648	437.55618	1740.57349	-806.27942	156.16898	2098.57324	-831.97192	184.74269	1937.49768	-855.63690	225.26016	1568.03613	-948.60535	301.73480	1501.19543	-1038.33911	216.16846	1440.76636	-913.11456	277.38345	1453.71960	-807.92609	4200.52539	32.79078	-4241.16406	-3735.35132	-12.54222	-4194.45264	-3781.49316	-15.74741	4946.29053	4162.73145	21.56414	4908.15283	
272	4.517	350.75598	3006.76172	-544.78040	333.59442	2851.77026	-479.71301	434.89667	2868.81104	-544.03101	250.17462	2879.07104	-550.76910	328.68552	2791.08813	-803.66962	352.44250	2493.50122	-668.73700	190.45654	2675.35352	-872.28290	432.69400	2629.97705	-649.47095	540.27686	2758.75195	-718.84430	627.39014	2588.67603	-834.66113	606.80536	2541.99390	-962.01843	597.39093	2349.57715	-786.01367	572.42365	2279.54126	-737.47974	562.12964	2338.76147	-653.27789	276.92014	2621.82666	-636.75269	149.11244	2735.69727	-683.39191	80.10838	2568.90503	-747.17493	89.98437	2399.95776	-760.48492	158.47221	2456.55176	-529.23511	200.94810	2437.00000	-448.75809	196.57558	2537.03833	-433.77170	325.84665	2721.12085	-863.30743	318.07986	2605.78540	-922.22144	310.37762	2496.96826	-976.86560	461.36172	2523.28931	-946.45062	451.76437	2415.09961	-1018.38824	170.01831	2388.33057	-974.16895	492.58130	2385.56396	-881.30212	170.75693	2347.41724	-834.61725	350.72913	2335.09741	-760.51080	548.32635	2204.14282	-846.47650	560.99945	2124.95679	-686.27026	495.63614	1888.28613	-870.37262	414.19598	1877.91467	-973.75507	488.84671	1785.17480	-872.66150	434.75919	1751.23376	-763.85846	158.76680	2110.49097	-830.37866	185.81473	1949.68677	-859.80878	223.78226	1575.43958	-947.20215	300.39285	1509.60156	-1033.74585	216.05850	1443.75964	-910.67444	277.51917	1453.81860	-806.50580	4200.45947	32.76688	-4241.15430	-3735.35059	-12.54016	-4194.44922	-3781.53076	-15.71320	4946.25439	4162.66113	21.58364	4908.03906	
